name rise49.5252peak65.1548fall88.8305.mot
datacolumns 19
datarows 30
range 15.70826900000000 15.75660200000000
endheader
time	ground_force1_vx	ground_force1_vy	ground_force1_vz	ground_force1_px	ground_force1_py	ground_force1_pz	ground_force2_vx	ground_force2_vy	ground_force2_vz	ground_force2_px	ground_force2_py	ground_force2_pz	ground_torque1_x	ground_torque1_y	ground_torque1_z	ground_torque2_x	ground_torque2_y	ground_torque2_z	
15.70826900000000	69.22360200000000	775.79852400000004	50.22582200000000	0.43292300000000	0.00000000000000	0.10211500000000	0.00000000000000	0.00000000000000	0.00000000000000	0.00000000000000	0.00000000000000	0.00000000000000	0.00000000000000	27.17248100000000	0.00000000000000	0.00000000000000	0.00000000000000	0.00000000000000	
15.70993100000000	68.42546800000000	777.84955200000002	50.35635500000000	0.43173600000000	0.00000000000000	0.10218400000000	0.00000000000000	0.00000000000000	0.00000000000000	0.00000000000000	0.00000000000000	0.00000000000000	0.00000000000000	27.27637300000000	0.00000000000000	0.00000000000000	0.00000000000000	0.00000000000000	
15.71159700000000	67.62553500000000	779.78957500000001	50.49331100000000	0.43054300000000	0.00000000000000	0.10225600000000	0.00000000000000	0.00000000000000	0.00000000000000	0.00000000000000	0.00000000000000	0.00000000000000	0.00000000000000	27.38673500000000	0.00000000000000	0.00000000000000	0.00000000000000	0.00000000000000	
15.71327200000000	66.82443200000000	781.61890800000003	50.63629200000000	0.42934500000000	0.00000000000000	0.10233100000000	0.00000000000000	0.00000000000000	0.00000000000000	0.00000000000000	0.00000000000000	0.00000000000000	0.00000000000000	27.50320200000000	0.00000000000000	0.00000000000000	0.00000000000000	0.00000000000000	
15.71493300000000	66.02273500000000	783.33792400000004	50.78481200000000	0.42814300000000	0.00000000000000	0.10240900000000	0.00000000000000	0.00000000000000	0.00000000000000	0.00000000000000	0.00000000000000	0.00000000000000	0.00000000000000	27.62533700000000	0.00000000000000	0.00000000000000	0.00000000000000	0.00000000000000	
15.71659900000000	65.22097300000000	784.94705499999998	50.93829600000000	0.42693500000000	0.00000000000000	0.10249000000000	0.00000000000000	0.00000000000000	0.00000000000000	0.00000000000000	0.00000000000000	0.00000000000000	0.00000000000000	27.75263200000000	0.00000000000000	0.00000000000000	0.00000000000000	0.00000000000000	
15.71826600000000	64.41963000000000	786.44680200000005	51.09609100000000	0.42572300000000	0.00000000000000	0.10257400000000	0.00000000000000	0.00000000000000	0.00000000000000	0.00000000000000	0.00000000000000	0.00000000000000	0.00000000000000	27.88451800000000	0.00000000000000	0.00000000000000	0.00000000000000	0.00000000000000	
15.71993800000000	63.61914600000000	787.83773499999995	51.25747000000000	0.42450600000000	0.00000000000000	0.10266000000000	0.00000000000000	0.00000000000000	0.00000000000000	0.00000000000000	0.00000000000000	0.00000000000000	0.00000000000000	28.02037100000000	0.00000000000000	0.00000000000000	0.00000000000000	0.00000000000000	
15.72160200000000	62.81992200000000	789.12049999999999	51.42164500000000	0.42328400000000	0.00000000000000	0.10275000000000	0.00000000000000	0.00000000000000	0.00000000000000	0.00000000000000	0.00000000000000	0.00000000000000	0.00000000000000	28.15951600000000	0.00000000000000	0.00000000000000	0.00000000000000	0.00000000000000	
15.72327100000000	62.02232200000000	790.29582200000004	51.58777100000000	0.42205600000000	0.00000000000000	0.10284200000000	0.00000000000000	0.00000000000000	0.00000000000000	0.00000000000000	0.00000000000000	0.00000000000000	0.00000000000000	28.30123600000000	0.00000000000000	0.00000000000000	0.00000000000000	0.00000000000000	
15.72493500000000	61.22667500000000	791.36450800000000	51.75495500000000	0.42082300000000	0.00000000000000	0.10293600000000	0.00000000000000	0.00000000000000	0.00000000000000	0.00000000000000	0.00000000000000	0.00000000000000	0.00000000000000	28.44477900000000	0.00000000000000	0.00000000000000	0.00000000000000	0.00000000000000	
15.72660200000000	60.43327900000000	792.32745299999999	51.92226600000000	0.41958500000000	0.00000000000000	0.10303300000000	0.00000000000000	0.00000000000000	0.00000000000000	0.00000000000000	0.00000000000000	0.00000000000000	0.00000000000000	28.58936200000000	0.00000000000000	0.00000000000000	0.00000000000000	0.00000000000000	
15.72827200000000	59.64240400000000	793.18563900000004	52.08874100000000	0.41834100000000	0.00000000000000	0.10313200000000	0.00000000000000	0.00000000000000	0.00000000000000	0.00000000000000	0.00000000000000	0.00000000000000	0.00000000000000	28.73418200000000	0.00000000000000	0.00000000000000	0.00000000000000	0.00000000000000	
15.72993500000000	58.85429400000000	793.94013700000005	52.25339500000000	0.41709100000000	0.00000000000000	0.10323400000000	0.00000000000000	0.00000000000000	0.00000000000000	0.00000000000000	0.00000000000000	0.00000000000000	0.00000000000000	28.87842000000000	0.00000000000000	0.00000000000000	0.00000000000000	0.00000000000000	
15.73159900000000	58.06917000000000	794.59211300000004	52.41523000000000	0.41583600000000	0.00000000000000	0.10333800000000	0.00000000000000	0.00000000000000	0.00000000000000	0.00000000000000	0.00000000000000	0.00000000000000	0.00000000000000	29.02124700000000	0.00000000000000	0.00000000000000	0.00000000000000	0.00000000000000	
15.73326500000000	57.28723300000000	795.14282500000002	52.57324000000000	0.41457400000000	0.00000000000000	0.10344500000000	0.00000000000000	0.00000000000000	0.00000000000000	0.00000000000000	0.00000000000000	0.00000000000000	0.00000000000000	29.16183300000000	0.00000000000000	0.00000000000000	0.00000000000000	0.00000000000000	
15.73493800000000	56.50866500000000	795.59362399999998	52.72642500000000	0.41330700000000	0.00000000000000	0.10355300000000	0.00000000000000	0.00000000000000	0.00000000000000	0.00000000000000	0.00000000000000	0.00000000000000	0.00000000000000	29.29935300000000	0.00000000000000	0.00000000000000	0.00000000000000	0.00000000000000	
15.73660100000000	55.73363400000000	795.94595700000002	52.87379100000000	0.41203300000000	0.00000000000000	0.10366300000000	0.00000000000000	0.00000000000000	0.00000000000000	0.00000000000000	0.00000000000000	0.00000000000000	0.00000000000000	29.43299300000000	0.00000000000000	0.00000000000000	0.00000000000000	0.00000000000000	
15.73826800000000	54.96229400000000	796.20136300000001	53.01436600000000	0.41075300000000	0.00000000000000	0.10377600000000	0.00000000000000	0.00000000000000	0.00000000000000	0.00000000000000	0.00000000000000	0.00000000000000	0.00000000000000	29.56195300000000	0.00000000000000	0.00000000000000	0.00000000000000	0.00000000000000	
15.73994100000000	54.19479000000000	796.36147300000005	53.14720100000000	0.40946700000000	0.00000000000000	0.10389000000000	0.00000000000000	0.00000000000000	0.00000000000000	0.00000000000000	0.00000000000000	0.00000000000000	0.00000000000000	29.68545900000000	0.00000000000000	0.00000000000000	0.00000000000000	0.00000000000000	
15.74160300000000	53.43125500000000	796.42801199999997	53.27138100000000	0.40817500000000	0.00000000000000	0.10400600000000	0.00000000000000	0.00000000000000	0.00000000000000	0.00000000000000	0.00000000000000	0.00000000000000	0.00000000000000	29.80276100000000	0.00000000000000	0.00000000000000	0.00000000000000	0.00000000000000	
15.74327000000000	52.67181700000000	796.40279099999998	53.38602700000000	0.40687600000000	0.00000000000000	0.10412300000000	0.00000000000000	0.00000000000000	0.00000000000000	0.00000000000000	0.00000000000000	0.00000000000000	0.00000000000000	29.91314600000000	0.00000000000000	0.00000000000000	0.00000000000000	0.00000000000000	
15.74493300000000	51.91659700000000	796.28770999999995	53.49030800000000	0.40557100000000	0.00000000000000	0.10424300000000	0.00000000000000	0.00000000000000	0.00000000000000	0.00000000000000	0.00000000000000	0.00000000000000	0.00000000000000	30.01593500000000	0.00000000000000	0.00000000000000	0.00000000000000	0.00000000000000	
15.74660500000000	51.16571200000000	796.08475399999998	53.58344200000000	0.40425900000000	0.00000000000000	0.10436300000000	0.00000000000000	0.00000000000000	0.00000000000000	0.00000000000000	0.00000000000000	0.00000000000000	0.00000000000000	30.11049300000000	0.00000000000000	0.00000000000000	0.00000000000000	0.00000000000000	
15.74826600000000	50.41927800000000	795.79598699999997	53.66470400000000	0.40294100000000	0.00000000000000	0.10448500000000	0.00000000000000	0.00000000000000	0.00000000000000	0.00000000000000	0.00000000000000	0.00000000000000	0.00000000000000	30.19622900000000	0.00000000000000	0.00000000000000	0.00000000000000	0.00000000000000	
15.74993900000000	49.67740800000000	795.42355099999997	53.73342800000000	0.40161600000000	0.00000000000000	0.10460800000000	0.00000000000000	0.00000000000000	0.00000000000000	0.00000000000000	0.00000000000000	0.00000000000000	0.00000000000000	30.27260300000000	0.00000000000000	0.00000000000000	0.00000000000000	0.00000000000000	
15.75160100000000	48.94021200000000	794.96966299999997	53.78901300000000	0.40028600000000	0.00000000000000	0.10473300000000	0.00000000000000	0.00000000000000	0.00000000000000	0.00000000000000	0.00000000000000	0.00000000000000	0.00000000000000	30.33912400000000	0.00000000000000	0.00000000000000	0.00000000000000	0.00000000000000	
15.75326700000000	48.20780500000000	794.43660799999998	53.83092600000000	0.39894900000000	0.00000000000000	0.10485800000000	0.00000000000000	0.00000000000000	0.00000000000000	0.00000000000000	0.00000000000000	0.00000000000000	0.00000000000000	30.39535900000000	0.00000000000000	0.00000000000000	0.00000000000000	0.00000000000000	
15.75493100000000	47.48029900000000	793.82673599999998	53.85870700000000	0.39760600000000	0.00000000000000	0.10498500000000	0.00000000000000	0.00000000000000	0.00000000000000	0.00000000000000	0.00000000000000	0.00000000000000	0.00000000000000	30.44092900000000	0.00000000000000	0.00000000000000	0.00000000000000	0.00000000000000	
15.75660200000000	46.75780700000000	793.14245700000004	53.87196700000000	0.39625700000000	0.00000000000000	0.10511300000000	0.00000000000000	0.00000000000000	0.00000000000000	0.00000000000000	0.00000000000000	0.00000000000000	0.00000000000000	30.47551500000000	0.00000000000000	0.00000000000000	0.00000000000000	0.00000000000000	
